# ProBuilder 4.1.0
# https://unity3d.com/unity/features/worldbuilding/probuilder
# 7/8/2020 5:04:34 PM

mtllib ./Bolt.mtl
o Bolt

g Bolt
v 0 0 0
v 0 1 0
v 0.1464466 0 0.3535534
v 0.1464466 1 0.3535534
v 0.5 0 0.5
v 0.5 1 0.5
v 0.8535534 0 0.3535534
v 0.8535534 1 0.3535534
v 1 0 -4.371139E-08
v 0.9906249 0.9999999 1.490116E-08
v 0.8535534 0 -0.3535534
v 0.8496701 0.9999999 -0.3535534
v 0.5 0 -0.5
v 0.5 1 -0.5
v 0.1464467 0 -0.3535534
v 0.1464467 1 -0.3535534
v 0.5 0 0
v -0.5048672 1.001297 1.055263E-07
v 0.5237084 1.001297 1.055263E-07
v -0.2091489 1.001297 0.7139271
v 0.5047783 1.001297 1.009645
v 1.218705 1.001297 0.7139271
v 1.495493 1.001297 1.055263E-07
v 1.210863 1.001297 -0.7139271
v 0.5047783 1.001297 -1.009646
v -0.2091489 1.001297 -0.7139271
v 0.5037554 1.000156 -0.9005464
v 1.133543 1.000156 -0.6367823
v -0.1330273 1.000156 -0.6367823
v 1.387416 1.000156 1.490116E-08
v 1.140538 1.000156 0.6367825
v 0.5037554 1.000156 0.9005463
v -0.1330273 1.000156 0.6367825
v -0.3967914 1.000156 1.490116E-08
v 0.5030497 1.000248 -0.8252732
v 1.080196 1.000248 -0.5835561
v -0.08050675 1.000248 -0.5835561
v 1.312849 1.000248 -1.490116E-08
v 1.086606 1.000248 0.5835563
v 0.5030497 1.000248 0.825273
v -0.08050675 1.000248 0.5835563
v -0.3222238 1.000248 -1.490116E-08
v 1.001796 1.000334 0.4998559
v 0.50194 1.000334 0.7069029
v 1.195588 1.000334 -1.490116E-08
v 0.002083848 1.000334 0.4998559
v -0.2049633 1.000334 -1.490116E-08
v 0.002083848 1.000334 -0.4998558
v 0.50194 1.000334 -0.7069031
v 0.9963053 1.000334 -0.4998558
v 1.153687 1.000464 0.6497601
v 0.5039275 1.000464 0.9188993
v 1.405597 1.000464 4.531257E-08
v -0.1458327 1.000464 0.6497601
v -0.4149722 1.000464 4.531257E-08
v -0.1458327 1.000464 -0.6497599
v 0.5039275 1.000464 -0.9188996
v 1.14655 1.000464 -0.6497599
v 1.153687 1.00064 0.6497601
v 0.5039275 1.00064 0.9188993
v 1.405597 1.00064 4.531257E-08
v -0.1458327 1.00064 0.6497601
v -0.4149722 1.00064 4.531257E-08
v -0.1458327 1.00064 -0.64976
v 0.5039275 1.00064 -0.9188997
v 1.14655 1.00064 -0.64976
v 1.178852 1.000744 0.6745954
v 0.5042567 1.000744 0.9540218
v 1.44039 1.000744 4.531257E-08
v -0.1703388 1.000744 0.6745954
v -0.4497654 1.000744 4.531257E-08
v -0.1703388 1.000744 -0.6745954
v 0.5042567 1.000744 -0.9540222
v 1.171442 1.000744 -0.6745954
v 1.257511 1.000915 0.752225
v 0.505286 1.000915 1.063807
v 1.549146 1.000915 1.055263E-07
v -0.2469392 1.000915 0.752225
v -0.558521 1.000915 1.055263E-07
v -0.2469392 1.000915 -0.752225
v 0.505286 1.000915 -1.063807
v 1.249249 1.000915 -0.752225
v 1.257511 1.00114 0.752225
v 0.505286 1.00114 1.063807
v 1.549146 1.00114 1.055263E-07
v -0.2469392 1.00114 0.752225
v -0.558521 1.00114 1.055263E-07
v -0.2469392 1.00114 -0.7522251
v 0.505286 1.00114 -1.063807
v 1.249249 1.00114 -0.7522251

vt 0 0
vt 0 1
vt 0.3826835 0
vt 0.3826835 1
vt 0.2705981 0
vt 0.2705981 1
vt 0.6532815 0
vt 0.6532815 1
vt 0.3790957 0.9999999
vt -0.3826834 -0.008001867
vt -0.3790958 0.9920356
vt -5.127398E-08 -0.008001867
vt 0.001486047 0.9919916
vt -0.6532815 -0.0009708396
vt -0.6496938 0.9990302
vt -0.2705981 -0.0009708396
vt -0.2705981 0.9990281
vt -0.6532815 0
vt -0.6532815 1
vt -0.2705981 0
vt -0.2705981 1
vt -0.3826835 0
vt -0.3826835 1
vt 0.5 0
vt 0.1464466 0.3535534
vt 0.5048672 1.055263E-07
vt -0.5237084 1.055263E-07
vt 0.2091489 0.7139271
vt 0.5 0.5
vt -0.5047783 1.009645
vt 0.8535534 0.3535534
vt -1.218705 0.7139271
vt 1 -4.371139E-08
vt -1.495493 1.055263E-07
vt 0.8535534 -0.3535534
vt -1.210863 -0.7139271
vt 0.5 -0.5
vt -0.5047783 -1.009646
vt 0.1464467 -0.3535534
vt 0.2091489 -0.7139271
vt 0.8498324 -0.3539416
vt 0.5039178 -0.9009347
vt 1.133706 -0.6371707
vt 0.4998379 -0.5003914
vt -0.1331894 -0.6371738
vt 0.8500639 -0.3537103
vt 0.9910187 -0.0001569513
vt 1.133937 -0.6369393
vt 1.38781 -0.0001569513
vt 1.140931 0.6369355
vt 1.140698 0.6371709
vt 0.5039163 0.9009346
vt 0.4998379 0.5003914
vt -0.1331894 0.637174
vt -0.1334209 0.6369455
vt -0.397185 0.0001630359
vt -0.1334209 -0.6369454
vt -0.5032465 -0.8993306
vt -1.133034 -0.6355664
vt -0.5025408 -0.8240573
vt -1.079687 -0.58234
vt 0.1325201 -0.6355574
vt -0.5042625 -0.8993217
vt 0.07999954 -0.5823311
vt -0.5035568 -0.8240484
vt -1.132311 -0.6362907
vt -1.386184 0.0004916961
vt -1.078964 -0.5830644
vt -1.311616 0.0004916663
vt -1.139305 0.6363044
vt -1.085374 0.5830782
vt -1.140034 0.6355665
vt -0.5032521 0.8993304
vt -1.086102 0.5823402
vt -0.5025463 0.824057
vt -0.5042625 0.8993216
vt 0.1325201 0.6355576
vt -0.5035568 0.8240482
vt 0.07999954 0.5823314
vt 0.131796 0.6362724
vt 0.39556 -0.0005102018
vt 0.07927541 0.5830461
vt 0.3209923 -0.0005102316
vt 0.39556 0.0005102315
vt 0.131796 -0.6362722
vt 0.3209923 0.0005102017
vt 0.07927541 -0.5830459
vt -1.086307 0.5828344
vt -0.5027508 0.8245512
vt -1.001497 0.4991341
vt -0.5016411 0.7061811
vt -1.312117 -0.0002837442
vt -1.085874 0.5832726
vt -1.194857 -0.0002837442
vt -1.001064 0.4995722
vt -0.5033508 0.8245458
vt 0.08020557 0.5828291
vt -0.5022411 0.7061757
vt -0.002385048 0.4991286
vt 0.0797756 0.5832534
vt 0.3214926 -0.0003029305
vt -0.002815041 0.499553
vt 0.2042321 -0.0003029305
vt 0.0797756 -0.5832531
vt -0.002815041 -0.4995529
vt 0.08020557 -0.5828288
vt -0.5033508 -0.824546
vt -0.002385049 -0.4991286
vt -0.5022411 -0.7061759
vt -0.5027475 -0.8245514
vt -1.079894 -0.5828342
vt -0.5016378 -0.7061813
vt -0.9960031 -0.499134
vt -1.079465 -0.5832644
vt -0.9955739 -0.4995641
vt 1.002049 0.5004665
vt 0.5021929 0.7075135
vt 1.15394 0.6503706
vt 0.5041805 0.9195099
vt 1.196207 0.0002397659
vt 1.406216 0.0002398261
vt 1.154306 0.6499999
vt 0.501685 0.7075184
vt 0.001828891 0.5004714
vt 0.5036725 0.9195148
vt -0.1460877 0.6503755
vt 0.001464915 0.5001123
vt -0.2055822 0.0002563231
vt -0.4155912 0.0002563833
vt 0.001464915 -0.5001122
vt -0.1464517 -0.6500163
vt 0.001828891 -0.5004713
vt 0.501685 -0.7075186
vt 0.5036725 -0.9195151
vt 0.5021957 -0.7075136
vt 0.9965611 -0.5004663
vt 0.5041833 -0.9195102
vt 1.146806 -0.6503705
vt 1.147169 -0.6500065
vt 0.8172157 1.000464
vt 0.1139208 1.000464
vt 0.8172157 1.00064
vt 0.1139208 1.00064
vt 0.5080963 1.000464
vt -0.1887873 1.000464
vt 0.5080963 1.00064
vt -0.1887873 1.00064
vt 0.5444922 1.000464
vt -0.158803 1.000464
vt 0.5444922 1.00064
vt -0.158803 1.00064
vt 0.1588031 1.000464
vt -0.5444921 1.000464
vt 0.1588031 1.00064
vt -0.5444922 1.00064
vt -0.1139206 1.000669
vt -0.8172161 1.000669
vt -0.1098353 1.000789
vt -0.8065422 1.000789
vt 0.1789545 1.000627
vt -0.5205405 1.000627
vt 1.154907 0.6526998
vt 0.5051477 0.9218403
vt 1.180072 0.6775352
vt 0.5054771 0.9569628
vt 1.408577 0.001152901
vt 1.156668 0.6509134
vt 1.443371 0.001152901
vt 1.181833 0.6757486
vt 0.5026971 0.9218668
vt -0.1470627 0.6527264
vt 0.5030261 0.9569893
vt -0.1715689 0.6775618
vt -0.1488183 0.6509959
vt -0.4179565 0.001235409
vt -0.1733245 0.6758312
vt -0.4527498 0.001235409
vt -0.4179565 -0.001235317
vt -0.1488182 -0.6509959
vt -0.4527498 -0.001235317
vt -0.1733245 -0.6758312
vt -0.1470627 -0.6527263
vt 0.5026971 -0.9218671
vt -0.1715689 -0.6775618
vt 0.5030261 -0.9569898
vt 0.5051612 -0.9218404
vt 1.147784 -0.6526996
vt 0.5054905 -0.9569631
vt 1.172676 -0.6775351
vt 1.149531 -0.650946
vt 1.408577 -0.001185472
vt 1.174424 -0.6757814
vt 1.443371 -0.001185472
vt 0.8309607 1.000744
vt 0.1007842 1.000744
vt 0.5206735 1.003267
vt -0.2028466 1.003267
vt 0.558059 1.000744
vt -0.1721178 1.000744
vt 0.1721178 1.000744
vt -0.558059 1.000744
vt -0.1007842 1.000744
vt -0.8309612 1.000744
vt -0.0965711 1.001743
vt -0.8199077 1.001743
vt 0.1928058 1.000744
vt -0.5334256 1.000744
vt 1.179272 0.6756089
vt 0.5046768 0.9550354
vt 1.257931 0.7532386
vt 0.5057062 1.06482
vt 1.441418 0.0003979654
vt 1.179879 0.6749933
vt 1.550174 0.0003980256
vt 1.258538 0.752623
vt 0.5038333 0.9550437
vt -0.1707622 0.6756172
vt 0.5048625 1.064829
vt -0.2473626 0.7532468
vt -0.1713666 0.675021
vt -0.450793 0.000425614
vt -0.247967 0.7526507
vt -0.5595487 0.0004256742
vt -0.1713666 -0.675021
vt -0.247967 -0.7526507
vt -0.1707622 -0.6756172
vt 0.5038333 -0.9550442
vt -0.2473626 -0.7532468
vt 0.5048625 -1.064829
vt 0.5046815 -0.9550358
vt 1.171867 -0.6756088
vt 0.5057108 -1.064821
vt 1.249673 -0.7532385
vt 1.172469 -0.6750046
vt 1.250276 -0.7526343
vt 0.8739246 1.000915
vt 0.05972251 1.000915
vt 0.8739246 1.00114
vt 0.05972251 1.00114
vt 0.5599869 1.001627
vt -0.2467929 1.001627
vt 0.6004657 1.000915
vt -0.2137367 1.000915
vt 0.6004657 1.00114
vt -0.2137367 1.00114
vt 0.2137369 1.000915
vt -0.6004658 1.000915
vt 0.2137369 1.00114
vt -0.6004658 1.00114
vt -0.05972228 1.001107
vt -0.8739251 1.001107
vt -0.05511006 1.000915
vt -0.8616853 1.000915
vt -0.05511006 1.00114
vt -0.8616853 1.00114
vt 0.2361014 1.001055
vt -0.5737019 1.001055
vt -1.256786 0.7504729
vt -0.5045613 1.062055
vt -1.21798 0.7121749
vt -0.5040535 1.007893
vt -1.547371 -0.000689093
vt -1.255736 0.751536
vt -1.493718 -0.000689093
vt -1.21693 0.7132381
vt -0.5060162 1.062042
vt 0.2462088 0.7504605
vt -0.5055085 1.007881
vt 0.2084185 0.7121625
vt 0.245166 0.7514902
vt 0.5567474 -0.0007349407
vt 0.2073756 0.7131923
vt 0.5030934 -0.0007349407
vt 0.5567474 0.0007351508
vt 0.245166 -0.7514903
vt 0.5030934 0.0007351508
vt 0.2073756 -0.7131923
vt 0.2462088 -0.7504606
vt -0.5060162 -1.062043
vt 0.2084185 -0.7121626
vt -0.5055085 -1.007882
vt -0.5045533 -1.062056
vt -1.248516 -0.7504731
vt -0.5040454 -1.007894
vt -1.21013 -0.7121751
vt -1.247474 -0.7515166
vt -1.547371 0.0007088277
vt -1.209089 -0.7132186
vt -1.493718 0.0007088277
vt 0.852729 1.001235
vt 0.07998025 1.001235
vt 0.5405925 1.001235
vt -0.2251119 1.001235
vt 0.5795448 1.001235
vt -0.1932042 1.001235
vt 0.1932043 1.001235
vt -0.579545 1.001235
vt -0.07997996 1.001235
vt -0.8527293 1.001235
vt -0.07556444 1.003239
vt -0.8410746 1.003239
vt 0.2147416 1.001235
vt -0.5538324 1.001235

vn -1 0 -3.22578E-08
vn -0.7071068 0 0.7071068
vn -3.22578E-08 0 1
vn 0.7071068 0 0.7071068
vn 0.7111189 0.002370982 0.7030677
vn 0.9999589 0.007036352 -0.005720207
vn 0.9999353 0.008002324 -0.008087591
vn 0.709447 0.004129853 -0.7047467
vn 0.7124895 0.002359952 -0.7016787
vn 0.0009795525 0.0004022989 -0.9999994
vn 0.001960095 0 -0.9999981
vn -0.7071067 0 -0.7071068
vn 0 -1 0
vn 0 1 0
vn 0.000162308 -0.9999999 -0.0003883561
vn 0.0005087205 0.9999992 -0.001214669
vn -0.0005070766 0.9999992 -0.001224191
vn 0.001230977 0.9999992 -0.0004907668
vn 0.0005031538 0.9999992 0.001214721
vn -0.000507076 0.9999992 0.001224191
vn -0.001230979 0.9999992 0.0005098884
vn -0.001230978 0.9999991 -0.0005098883
vn 0.0002987706 0.9999997 0.0007212962
vn 0.00073095 0.9999997 0.0002833871
vn -0.0007309494 0.9999997 0.0003027693
vn -0.0003011004 0.9999997 -0.0007269203
vn 0.0002529001 -0.9999998 0.0006105549
vn 0.0006187264 -0.9999998 0.0002398783
vn -0.0006187265 -0.9999998 0.000256285
vn -0.0002548721 -0.9999998 -0.0006153154
vn 0.3826833 0 0.9238796
vn 0.9323796 0 0.3614807
vn -0.3826831 0 0.9238797
vn -0.9238795 0 0.3826835
vn -0.9238795 0 -0.3826835
vn -0.3826836 -0.0003123324 -0.9238794
vn 0.3863026 -0.0003118229 -0.9223721
vn 0.9288987 -0.0001251974 -0.370334
vn 0.001219783 -0.9999949 0.002944818
vn 0.002984221 -0.9999949 0.001156973
vn -0.001229291 -0.9999949 0.002967774
vn -0.002984231 -0.9999948 0.001236109
vn -0.002984228 -0.9999948 -0.001236108
vn -0.001229293 -0.9999949 -0.002967773
vn 0.001233276 -0.9999949 -0.002944684
vn 0.002984223 -0.9999949 -0.001189752
vn 0.9323779 -0.001879794 0.3614802
vn 0.9323787 -0.0009398971 0.3614806
vn -0.3826836 -0.0009313296 -0.923879
vn 0.3863024 -0.0009298102 -0.9223717
vn 0.9288979 -0.0009363881 -0.3703337
vn 0.928897 -0.001872776 -0.3703335
vn 0.0004198052 -0.9999994 0.0010135
vn 0.001027063 -0.9999994 0.0003981897
vn -0.001027064 -0.9999994 0.0004254239
vn -0.0004230786 -0.9999994 -0.001021401
vn 0.0007237998 0.9999982 0.001747408
vn 0.001770797 0.9999982 0.0006865337
vn -0.0007294409 0.9999982 0.001761028
vn -0.001770791 0.9999982 0.0007334857
vn -0.001770789 0.9999982 -0.0007334847
vn -0.0007294428 0.9999982 -0.001761029
vn 0.0007318081 0.9999983 -0.001747333
vn 0.001770794 0.9999982 -0.0007059819
vn -0.3826833 -0.001783548 -0.9238779
vn 0.3863021 -0.001780638 -0.9223706

usemtl BoltLabel
f 1/1/13 17/24/13 3/25/13
f 3/25/13 17/24/13 5/29/13
f 5/29/13 17/24/13 7/31/13
f 7/31/13 17/24/13 9/33/13
f 9/33/13 17/24/13 11/35/13
f 11/35/13 17/24/13 13/37/13
f 13/37/13 17/24/13 15/39/13
f 15/39/13 17/24/13 1/1/13
f 20/28/14 19/27/14 18/26/14
f 21/30/14 19/27/14 20/28/14
f 22/32/14 19/27/14 21/30/14
f 23/34/14 19/27/14 22/32/14
f 24/36/14 19/27/14 23/34/14
f 25/38/14 19/27/14 24/36/14
f 26/40/14 19/27/14 25/38/14
f 18/26/14 19/27/14 26/40/14
f 4/4/2 2/2/1 1/1/1
f 1/1/1 3/3/2 4/4/2
f 6/8/3 4/6/2 3/5/2
f 3/5/2 5/7/3 6/8/3
f 8/8/5 6/6/3 5/5/3
f 5/5/3 7/7/4 8/8/5
f 10/9/7 8/2/5 7/1/4
f 7/1/4 9/3/6 10/9/7
f 12/13/9 10/11/7 9/10/6
f 9/10/6 11/12/8 12/13/9
f 14/17/11 12/15/9 11/14/8
f 11/14/8 13/16/10 14/17/11
f 16/21/12 14/19/11 13/18/10
f 13/18/10 15/20/12 16/21/12
f 2/2/1 16/23/12 15/22/12
f 15/22/12 1/1/1 2/2/1
f 28/43/15 12/41/15 14/37/15
f 14/37/15 27/42/15 28/43/15
f 27/42/15 14/44/15 16/39/15
f 16/39/15 29/45/15 27/42/15
f 30/49/15 10/47/15 12/46/15
f 12/46/15 28/48/15 30/49/15
f 31/50/15 8/31/15 10/47/15
f 10/47/15 30/49/15 31/50/15
f 32/52/15 6/29/15 8/31/15
f 8/31/15 31/51/15 32/52/15
f 33/54/15 4/25/15 6/53/15
f 6/53/15 32/52/15 33/54/15
f 34/56/15 2/1/15 4/25/15
f 4/25/15 33/55/15 34/56/15
f 29/57/15 16/39/15 2/1/15
f 2/1/15 34/56/15 29/57/15
f 36/61/16 28/59/16 27/58/16
f 27/58/16 35/60/16 36/61/16
f 35/65/17 27/63/17 29/62/17
f 29/62/17 37/64/17 35/65/17
f 38/69/18 30/67/18 28/66/18
f 28/66/18 36/68/18 38/69/18
f 39/71/18 31/70/18 30/67/18
f 30/67/18 38/69/18 39/71/18
f 40/75/19 32/73/19 31/72/19
f 31/72/19 39/74/19 40/75/19
f 41/79/20 33/77/20 32/76/20
f 32/76/20 40/78/20 41/79/20
f 42/83/21 34/81/21 33/80/21
f 33/80/21 41/82/21 42/83/21
f 37/87/22 29/85/22 34/84/22
f 34/84/22 42/86/22 37/87/22
f 44/91/23 40/89/23 39/88/23
f 39/88/23 43/90/23 44/91/23
f 43/95/24 39/93/24 38/92/24
f 38/92/24 45/94/24 43/95/24
f 46/99/23 41/97/23 40/96/23
f 40/96/23 44/98/23 46/99/23
f 47/103/25 42/101/25 41/100/25
f 41/100/25 46/102/25 47/103/25
f 48/105/25 37/104/25 42/101/25
f 42/101/25 47/103/25 48/105/25
f 49/109/26 35/107/26 37/106/26
f 37/106/26 48/108/26 49/109/26
f 50/113/26 36/111/26 35/110/26
f 35/110/26 49/112/26 50/113/26
f 45/94/24 38/92/24 36/114/24
f 36/114/24 50/115/24 45/94/24
f 52/119/27 44/117/27 43/116/27
f 43/116/27 51/118/27 52/119/27
f 51/122/28 43/116/28 45/120/28
f 45/120/28 53/121/28 51/122/28
f 54/126/27 46/124/27 44/123/27
f 44/123/27 52/125/27 54/126/27
f 55/129/29 47/128/29 46/127/29
f 46/127/29 54/126/29 55/129/29
f 56/131/29 48/130/29 47/128/29
f 47/128/29 55/129/29 56/131/29
f 57/134/30 49/133/30 48/132/30
f 48/132/30 56/131/30 57/134/30
f 58/138/30 50/136/30 49/135/30
f 49/135/30 57/137/30 58/138/30
f 53/121/28 45/120/28 50/136/28
f 50/136/28 58/139/28 53/121/28
f 60/143/31 52/141/31 51/140/31
f 51/140/31 59/142/31 60/143/31
f 59/147/32 51/145/32 53/144/32
f 53/144/32 61/146/32 59/147/32
f 62/143/33 54/141/33 52/140/33
f 52/140/33 60/142/33 62/143/33
f 63/151/34 55/149/34 54/148/34
f 54/148/34 62/150/34 63/151/34
f 64/155/35 56/153/35 55/152/35
f 55/152/35 63/154/35 64/155/35
f 65/157/36 57/157/36 56/156/36
f 56/156/36 64/156/36 65/157/36
f 66/159/37 58/159/37 57/158/37
f 57/158/37 65/158/37 66/159/37
f 61/161/38 53/161/38 58/160/38
f 58/160/38 66/160/38 61/161/38
f 68/165/39 60/163/39 59/162/39
f 59/162/39 67/164/39 68/165/39
f 67/169/40 59/167/40 61/166/40
f 61/166/40 69/168/40 67/169/40
f 70/173/41 62/171/41 60/170/41
f 60/170/41 68/172/41 70/173/41
f 71/177/42 63/175/42 62/174/42
f 62/174/42 70/176/42 71/177/42
f 72/181/43 64/179/43 63/178/43
f 63/178/43 71/180/43 72/181/43
f 73/185/44 65/183/44 64/182/44
f 64/182/44 72/184/44 73/185/44
f 74/189/45 66/187/45 65/186/45
f 65/186/45 73/188/45 74/189/45
f 69/193/46 61/191/46 66/190/46
f 66/190/46 74/192/46 69/193/46
f 68/195/31 68/195/31 67/194/31
f 67/194/31 67/194/31 68/195/31
f 67/197/32 67/197/48 69/196/47
f 69/196/47 69/196/48 67/197/32
f 70/195/33 70/195/33 68/194/33
f 68/194/33 68/194/33 70/195/33
f 71/199/34 71/199/34 70/198/34
f 70/198/34 70/198/34 71/199/34
f 72/201/35 72/201/35 71/200/35
f 71/200/35 71/200/35 72/201/35
f 73/203/49 73/203/36 72/202/36
f 72/202/36 72/202/36 73/203/49
f 74/205/37 74/205/37 73/204/50
f 73/204/50 73/204/37 74/205/37
f 69/207/52 69/207/51 74/206/38
f 74/206/38 74/206/51 69/207/52
f 76/211/53 68/209/53 67/208/53
f 67/208/53 75/210/53 76/211/53
f 75/215/54 67/213/54 69/212/54
f 69/212/54 77/214/54 75/215/54
f 78/219/53 70/217/53 68/216/53
f 68/216/53 76/218/53 78/219/53
f 79/223/55 71/221/55 70/220/55
f 70/220/55 78/222/55 79/223/55
f 80/225/55 72/224/55 71/221/55
f 71/221/55 79/223/55 80/225/55
f 81/229/56 73/227/56 72/226/56
f 72/226/56 80/228/56 81/229/56
f 82/233/56 74/231/56 73/230/56
f 73/230/56 81/232/56 82/233/56
f 77/214/54 69/212/54 74/234/54
f 74/234/54 82/235/54 77/214/54
f 84/239/31 76/237/31 75/236/31
f 75/236/31 83/238/31 84/239/31
f 83/241/32 75/241/32 77/240/32
f 77/240/32 85/240/32 83/241/32
f 86/239/33 78/237/33 76/236/33
f 76/236/33 84/238/33 86/239/33
f 87/245/34 79/243/34 78/242/34
f 78/242/34 86/244/34 87/245/34
f 88/249/35 80/247/35 79/246/35
f 79/246/35 87/248/35 88/249/35
f 89/251/36 81/251/36 80/250/36
f 80/250/36 88/250/36 89/251/36
f 90/255/37 82/253/37 81/252/37
f 81/252/37 89/254/37 90/255/37
f 85/257/38 77/257/38 82/256/38
f 82/256/38 90/256/38 85/257/38
f 21/261/57 84/259/57 83/258/57
f 83/258/57 22/260/57 21/261/57
f 22/265/58 83/263/58 85/262/58
f 85/262/58 23/264/58 22/265/58
f 20/269/59 86/267/59 84/266/59
f 84/266/59 21/268/59 20/269/59
f 18/273/60 87/271/60 86/270/60
f 86/270/60 20/272/60 18/273/60
f 26/277/61 88/275/61 87/274/61
f 87/274/61 18/276/61 26/277/61
f 25/281/62 89/279/62 88/278/62
f 88/278/62 26/280/62 25/281/62
f 24/285/63 90/283/63 89/282/63
f 89/282/63 25/284/63 24/285/63
f 23/289/64 85/287/64 90/286/64
f 90/286/64 24/288/64 23/289/64
f 21/291/31 21/291/31 22/290/31
f 22/290/31 22/290/31 21/291/31
f 22/293/32 22/293/32 23/292/32
f 23/292/32 23/292/32 22/293/32
f 20/291/33 20/291/33 21/290/33
f 21/290/33 21/290/33 20/291/33
f 18/295/34 18/295/34 20/294/34
f 20/294/34 20/294/34 18/295/34
f 26/297/35 26/297/35 18/296/35
f 18/296/35 18/296/35 26/297/35
f 25/299/65 25/299/49 26/298/36
f 26/298/36 26/298/49 25/299/65
f 24/301/37 24/301/50 25/300/66
f 25/300/66 25/300/50 24/301/37
f 23/303/38 23/303/38 24/302/38
f 24/302/38 24/302/38 23/303/38

